<svg xmlns="http://www.w3.org/2000/svg" viewBox="0 0 48 48"><defs><style>.a{fill:none;stroke:#231f20;stroke-miterlimit:10;stroke-width:2px;}</style></defs><title>consoles</title><path class="a" d="M12.64,35.35a19.5,19.5,0,0,0,22.72,0"/><polyline class="a" points="16.96 29.49 17.07 29.48 20.95 24.4"/><line class="a" x1="31.12" y1="29.59" x2="27.24" y2="24.32"/><circle class="a" cx="24" cy="17" r="8"/><circle class="a" cx="34.5" cy="30.5" r="3.5"/><circle class="a" cx="10" cy="16" r="3"/><circle class="a" cx="13" cy="30" r="4"/><path class="a" d="M13.69,33.94l-1,1.41L7,43c-2.43,0-3.51-1.76-3.89-4.16A87.55,87.55,0,0,1,2,23C2,6.75,12,5,12,5A21.37,21.37,0,0,0,24,9,21.37,21.37,0,0,0,36,5S46,6.75,46,23a87.55,87.55,0,0,1-1.11,15.84,6,6,0,0,1-1.18,3A3.33,3.33,0,0,1,41,43l-5.64-7.65-1-1.36"/><ellipse class="a" cx="36.04" cy="14.01" rx="0.77" ry="1.11" transform="translate(-1.52 23.2) rotate(-35)"/><ellipse class="a" cx="36.04" cy="19.01" rx="0.77" ry="1.11" transform="translate(-4.38 24.11) rotate(-35)"/><ellipse class="a" cx="40.04" cy="17.01" rx="0.77" ry="1.11" transform="translate(-2.51 26.04) rotate(-35)"/><ellipse class="a" cx="40.04" cy="22.01" rx="0.77" ry="1.11" transform="translate(-5.38 26.95) rotate(-35)"/><line class="a" x1="24" y1="9" x2="24" y2="2"/></svg>