<svg xmlns="http://www.w3.org/2000/svg" viewBox="0 0 48 48"><defs><style>.a{fill:none;stroke:#231f20;stroke-miterlimit:10;stroke-width:2px;}</style></defs><title>consoles</title><path class="a" d="M45.37,41.23h0a126.82,126.82,0,0,1-42.75,0h0A2,2,0,0,1,1,39.28V8.81A2,2,0,0,1,2.63,6.86h0a126.82,126.82,0,0,1,42.75,0h0A2,2,0,0,1,47,8.81V39.28A2,2,0,0,1,45.37,41.23Z"/><polyline class="a" points="32.58 42.83 24 36.25 15.42 42.83"/><polyline class="a" points="1 11.25 12.1 24.35 1 37.45"/><polyline class="a" points="33.16 5.29 24 12.45 14.84 5.29"/><polyline class="a" points="47 37.45 35.9 24.35 47 11.25"/><circle class="a" cx="24" cy="24" r="5"/></svg>