<svg xmlns="http://www.w3.org/2000/svg" viewBox="0 0 48 48"><defs><style>.a{fill:none;stroke:#231f20;stroke-miterlimit:10;stroke-width:2px;}</style></defs><title>consoles</title><path class="a" d="M39.74,43H8.26a5,5,0,0,1-5-5.25l1.5-30A5,5,0,0,1,9.76,3H38.24a5,5,0,0,1,5,4.75l1.5,30A5,5,0,0,1,39.74,43Z"/><path class="a" d="M3.62,30.62C3,32.42,1,38,1,40a6,6,0,0,0,11.19,3"/><path class="a" d="M35.81,43A6,6,0,0,0,47,40c0-2-2-7.58-2.62-9.38"/><path class="a" d="M14,13H34a1,1,0,0,1,1,1v1a2,2,0,0,1-2,2H15a2,2,0,0,1-2-2V14A1,1,0,0,1,14,13Z"/><rect class="a" x="34" y="29" width="4" height="8" rx="2" ry="2"/><rect class="a" x="10" y="29" width="4" height="8" rx="2" ry="2"/><path class="a" d="M25,29h2a2,2,0,0,1,2,2v4a2,2,0,0,1-2,2H21a2,2,0,0,1-2-2V31a2,2,0,0,1,2-2h2"/></svg>