<svg xmlns="http://www.w3.org/2000/svg" viewBox="0 0 48 48"><defs><style>.a,.b{fill:none;stroke:#231f20;stroke-width:2px;}.a{stroke-miterlimit:10;}.b{stroke-linejoin:round;}</style></defs><title>consoles</title><path class="a" d="M44.09,43.09h0a212,212,0,0,1-40.19,0h0a1,1,0,0,1-.91-1V4A1,1,0,0,1,4,3H44a1,1,0,0,1,1,1V42.09A1,1,0,0,1,44.09,43.09Z"/><path class="a" d="M25.72,36.9a15,15,0,1,0-3.44,0"/><circle class="a" cx="39" cy="37" r="2"/><circle class="a" cx="9" cy="37" r="2"/><line class="a" x1="7" y1="3" x2="12" y2="13"/><line class="a" x1="41" y1="3" x2="36" y2="13"/><polyline class="b" points="19 31 24 40 29 31"/></svg>