<svg xmlns="http://www.w3.org/2000/svg" viewBox="0 0 48 48"><defs><style>.a{fill:none;stroke:#231f20;stroke-miterlimit:10;stroke-width:2px;}</style></defs><title>consoles</title><path class="a" d="M10,3H38a1,1,0,0,1,1,1V38a7,7,0,0,1-7,7H10a1,1,0,0,1-1-1V4A1,1,0,0,1,10,3Z"/><path class="a" d="M13,7H35a0,0,0,0,1,0,0V19a4,4,0,0,1-4,4H13a0,0,0,0,1,0,0V7A0,0,0,0,1,13,7Z"/><line class="a" x1="17" y1="29" x2="17" y2="37"/><line class="a" x1="13" y1="33" x2="21" y2="33"/><circle class="a" cx="28" cy="36" r="1"/><circle class="a" cx="32" cy="32" r="1"/></svg>