<svg xmlns="http://www.w3.org/2000/svg" viewBox="0 0 48 48"><defs><style>.a{fill:none;stroke:#231f20;stroke-miterlimit:10;stroke-width:2px;}.b{fill:#231f20;}</style></defs><title>consoles</title><line class="a" x1="32" y1="14" x2="16" y2="14"/><path class="a" d="M6,12V9l.27-.15a6.63,6.63,0,0,1,6.46,0L13,9v3"/><circle class="a" cx="38.5" cy="19.5" r="8.5"/><circle class="a" cx="9.5" cy="19.5" r="8.5"/><circle class="b" cx="42.5" cy="19.5" r="1.5"/><circle class="b" cx="38.5" cy="23.5" r="1.5"/><circle class="b" cx="34.5" cy="19.5" r="1.5"/><circle class="b" cx="38.5" cy="15.5" r="1.5"/><path class="b" d="M15,19.5A1.5,1.5,0,0,1,13.5,21c-.83,0-2.5-.67-2.5-1.5S12.67,18,13.5,18A1.5,1.5,0,0,1,15,19.5Z"/><path class="b" d="M11,23.5a1.5,1.5,0,0,1-3,0c0-.83.67-2.5,1.5-2.5S11,22.67,11,23.5Z"/><path class="b" d="M8,19.5C8,20.33,6.33,21,5.5,21a1.5,1.5,0,0,1,0-3C6.33,18,8,18.67,8,19.5Z"/><path class="b" d="M11,15.5c0,.83-.67,2.5-1.5,2.5S8,16.33,8,15.5a1.5,1.5,0,0,1,3,0Z"/><path class="a" d="M35,12V9l.27-.15a6.63,6.63,0,0,1,6.46,0L42,9v3"/><path class="a" d="M1,19V36.35a5.69,5.69,0,0,0,10.88,2.32l5.59-12.49A2,2,0,0,1,19.3,25H28.7a2,2,0,0,1,1.83,1.18l5.59,12.49A5.69,5.69,0,0,0,47,36.35V19"/><line class="a" x1="24" y1="14" x2="24" y2="2"/></svg>