<svg xmlns="http://www.w3.org/2000/svg" viewBox="0 0 48 48"><defs><style>.a{fill:none;stroke:#231f20;stroke-miterlimit:10;stroke-width:2px;}</style></defs><title>consoles</title><rect class="a" x="5" y="1.08" width="38" height="45.92" rx="4" ry="4"/><rect class="a" x="9" y="6" width="30" height="31" rx="2" ry="2"/><path class="a" d="M34.18,18.15l-.09,0a56.39,56.39,0,0,1-20.17,0l-.09,0a1,1,0,0,1-.82-1V16a1,1,0,0,1,1-1H34a1,1,0,0,1,1,1v1.17A1,1,0,0,1,34.18,18.15Z"/><rect class="a" x="31" y="27" width="4" height="6" rx="1" ry="1"/><rect class="a" x="13" y="27" width="4" height="6" rx="1" ry="1"/><rect class="a" x="21" y="27" width="6" height="6" rx="1" ry="1"/><line class="a" x1="34" y1="43" x2="38" y2="43"/></svg>