<svg xmlns="http://www.w3.org/2000/svg" viewBox="0 0 48 48"><defs><style>.a,.c{fill:none;stroke:#231f20;stroke-miterlimit:10;stroke-width:2px;}.b{fill:#231f20;}.c{stroke-linecap:round;}</style></defs><title>consoles</title><path class="a" d="M47,15V27.18a24.11,24.11,0,0,1-1.85,9.27h0A2.59,2.59,0,0,1,40.23,36l-1.88-8.45a2,2,0,0,0-2-1.57H32.77a3,3,0,0,0-3,2.72C29.26,34.4,27.68,47,24,47s-5.26-12.6-5.78-18.28a3,3,0,0,0-3-2.72H11.6a2,2,0,0,0-2,1.57L7.78,36a2.59,2.59,0,0,1-4.93.44h0A24,24,0,0,1,1,27.19V15"/><circle class="b" cx="40.5" cy="15.5" r="1.5"/><circle class="b" cx="37.5" cy="18.5" r="1.5"/><circle class="b" cx="33.5" cy="14.5" r="1.5"/><circle class="b" cx="36.5" cy="11.5" r="1.5"/><circle class="a" cx="24" cy="25" r="3"/><path class="a" d="M36.4,26c2.66-.53,5.71-1.17,7.58-3.06a10.55,10.55,0,0,0,.6-14.11,10.3,10.3,0,0,0-6.13-3.57A32.77,32.77,0,0,0,32.91,5a1,1,0,0,1-1-.91l-.12-1.4a1,1,0,0,0-.78-.9A31.85,31.85,0,0,0,24,1"/><path class="c" d="M32.71,4s6.44-.18,8.52,1.18"/><path class="a" d="M24,1a31.85,31.85,0,0,0-7,.78,1,1,0,0,0-.78.9l-.12,1.4a1,1,0,0,1-1,.91,32.77,32.77,0,0,0-5.54.25A10.3,10.3,0,0,0,3.42,8.8,10.55,10.55,0,0,0,4,22.91C5.89,24.8,8.94,25.44,11.6,26"/><path class="c" d="M15.23,4S8.78,3.81,6.71,5.17"/><rect class="b" x="9" y="11" width="2" height="8"/><rect class="b" x="9" y="11" width="2" height="8" transform="translate(25 5) rotate(90)"/></svg>