<svg xmlns="http://www.w3.org/2000/svg" viewBox="0 0 48 48"><defs><style>.a{fill:none;stroke:#231f20;stroke-miterlimit:10;stroke-width:2px;}</style></defs><title>consoles</title><path class="a" d="M45.9,41H31.67l-1.1-1H17.43l-1.1,1H2.1A1.05,1.05,0,0,1,1,40V8A1.05,1.05,0,0,1,2.1,7H16.33l1.1,1H30.57l1.1-1H45.9A1.05,1.05,0,0,1,47,8V40A1.05,1.05,0,0,1,45.9,41Z"/><circle class="a" cx="24" cy="24" r="13"/><line class="a" x1="32" y1="41" x2="32" y2="34"/><line class="a" x1="32" y1="14" x2="32" y2="7"/><line class="a" x1="16" y1="41" x2="16" y2="34"/><line class="a" x1="16" y1="14" x2="16" y2="7"/><circle class="a" cx="7" cy="35" r="2"/><circle class="a" cx="41" cy="35" r="2"/><circle class="a" cx="5.5" cy="24.5" r="0.5"/></svg>