<svg xmlns="http://www.w3.org/2000/svg" viewBox="0 0 48 48"><defs><style>.a{fill:#231f20;}.b,.c{fill:none;stroke:#231f20;stroke-miterlimit:10;stroke-width:2px;}.c{stroke-linecap:round;}</style></defs><title>consoles</title><circle class="a" cx="40.5" cy="27.5" r="1.5"/><circle class="a" cx="36.5" cy="30.5" r="1.5"/><circle class="a" cx="32.5" cy="26.5" r="1.5"/><circle class="a" cx="36.5" cy="23.5" r="1.5"/><rect class="a" x="10" y="23" width="2" height="8"/><rect class="a" x="10" y="23" width="2" height="8" transform="translate(38 16) rotate(90)"/><path class="b" d="M36.5,17a10.5,10.5,0,1,1-6.79,18.5,2,2,0,0,0-1.29-.5H19.58a2,2,0,0,0-1.29.5A10.5,10.5,0,1,1,11.5,17h25Z"/><path class="b" d="M24,17V14a4,4,0,0,0-4-4h0a3,3,0,0,1-3-3V2"/><path class="c" d="M33,16h3.91a10.05,10.05,0,0,1,4.39,1"/><path class="c" d="M15,16H11.09A10.05,10.05,0,0,0,6.7,17"/></svg>