<svg xmlns="http://www.w3.org/2000/svg" viewBox="0 0 48 48"><defs><style>.a{fill:none;stroke:#231f20;stroke-miterlimit:10;stroke-width:2px;}.b{fill:#231f20;}</style></defs><title>consoles</title><path class="a" d="M12.38,28a16,16,0,0,0,23.24,0"/><path class="a" d="M9.61,10a16,16,0,0,1,28.78,0"/><path class="a" d="M15,31c-2.32,1.81-3.45,9.24-3.84,12.48a1,1,0,0,1-1.65.64C4.29,39.64.45,21.81,5,9a11.71,11.71,0,0,1,7-2"/><path class="a" d="M12,39a66.25,66.25,0,0,1,24,0"/><rect class="b" x="11" y="20" width="2" height="6"/><rect class="b" x="11" y="20" width="2" height="6" transform="translate(35 11) rotate(90)"/><circle class="a" cx="9.5" cy="15.5" r="2.5"/><circle class="b" cx="40.5" cy="17.5" r="1.5"/><circle class="b" cx="36.5" cy="21.5" r="1.5"/><circle class="b" cx="32.5" cy="17.5" r="1.5"/><circle class="b" cx="36.5" cy="13.5" r="1.5"/><path class="a" d="M33,31c2.32,1.81,3.45,9.24,3.84,12.48a1,1,0,0,0,1.65.64C43.69,39.64,47.53,21.81,43,9a11.71,11.71,0,0,0-7-2"/><line class="a" x1="24" y1="46" x2="24" y2="38"/><path class="a" d="M27,15H21a1,1,0,0,1-1-1V8.71a1,1,0,0,1,.55-.89h0a7.71,7.71,0,0,1,6.89,0h0a1,1,0,0,1,.55.89V14A1,1,0,0,1,27,15Z"/></svg>